M48
;Layer_Color=9474304
;FILE_FORMAT=4:4
METRIC,LZ
;TYPE=PLATED
T01F00S00C0.3048
T02F00S00C0.4572
T03F00S00C0.6350
T04F00S00C0.7112
T05F00S00C0.8890
%
T01
X00736311Y00805307
X00736154Y00830715
X00737684Y00851284
X00770963Y00859266
X00773125Y00876608
X0078359Y0088011
X0073406Y00889
X0074803Y00932886
X0077343Y0093599
X0072136Y0094361
X0071501
X0080391Y0093472
X0079502Y0091948
X0082296Y0091186
X00832497Y00885589
X0084074Y0088392
X00818966Y00874383
X0081407Y0087757
X0081661Y0083058
X00810074Y00822686
X0079883Y0081915
X0083312Y0079502
X0085344Y0093472
X0087376
T02
X0072009Y0021082
X0073279Y0020447
X00791307Y0026734
X0077597Y0038608
X00766939Y00395111
X0080264Y0026543
X0082296Y0027051
X0080518Y0020574
X00796925Y00442704
X008001Y0052578
Y005461
X0079629Y0056261
X00845102Y00551249
X0084328Y0053467
X0084582Y0051943
X00780415Y00530305
X00780651Y00543894
X0078613Y0055245
X00783339Y00562219
X00770852Y00571174
X00766681Y0054509
X0075819Y0044704
X0078232Y0044577
X0076327Y0040513
T03
X0075184Y0020447
X0076327Y0021209
X0076581Y0030226
X0075311Y0031115
X0076454Y0033909
X0075184Y0035179
X008382Y0049784
X0086106Y0051435
X0084074Y0061468
X0081026Y00667534
X0073787Y006731
X0072898Y0061341
X0072136Y0050419
X0074168
X0074549Y0049022
X0075692Y0048006
X0075819Y0050292
X0070104Y0050419
X0069469Y0073279
X0078105Y007239
X0077895Y0083185
X0082042Y0092329
X0086487Y0090805
T04
X0087757Y0046355
X0085598Y0067818
X0078359Y0067437
T05
X00805129Y00761271
X0080518Y0077343
X0081915
X00818946Y00761271
X00833043
X0083312Y0077343
X0084709
X00847124Y00761271
X00876808Y0078867
X00889
X0079121Y0077343
X00791131Y00761271
X0077724Y00761238
Y0077343
X0076327
Y00761238
X007493
Y0077343
X0073533
Y00761238
X0072136
Y0077343
X006985Y0077978
X00686308
Y0079375
X006985
Y0080772
X00686308
Y0082169
X006985
Y0083566
X00686308
Y0084963
X00698467Y00849551
Y00863549
X00686308Y008636
Y0087757
X00698467Y00877366
Y00891463
X00686308Y0089154
Y0090551
X00698467Y00905545
X00698117Y00919345
X00685958Y00919423
Y00933393
X00698117Y00933427
X00876808Y0090043
X00888967Y00900353
Y00886256
X00876808Y0088646
Y0087249
X00888967Y00872439
Y00858441
X00876808Y0085852
Y0084455
X00889
Y0083058
X00876808
Y0081661
X00889
Y0080264
X00876808
M30
